<?xml version="1.0" standalone="no"?>
<!DOCTYPE svg PUBLIC "-//W3C//DTD SVG 20010904//EN"
 "http://www.w3.org/TR/2001/REC-SVG-20010904/DTD/svg10.dtd">
<svg version="1.0" xmlns="http://www.w3.org/2000/svg"
 width="1080.000000pt" height="1080.000000pt" viewBox="0 0 1080.000000 1080.000000"
 preserveAspectRatio="xMidYMid meet">

<g transform="translate(0.000000,1080.000000) scale(0.100000,-0.100000)"
fill="#000000" stroke="none">
<path d="M6171 8141 c-12 -16 -21 -31 -21 -34 0 -3 -25 -58 -55 -122 -30 -63
-55 -122 -55 -129 0 -8 -7 -19 -15 -26 -8 -7 -15 -19 -15 -27 0 -8 -7 -27 -15
-41 -33 -60 -155 -325 -155 -338 0 -10 70 -54 86 -54 7 0 214 445 214 460 0 5
11 25 24 44 33 48 46 30 47 -63 0 -42 4 -107 9 -146 5 -38 15 -126 21 -195 7
-69 16 -131 22 -137 17 -23 55 -14 117 30 34 23 80 53 101 67 64 41 211 142
249 170 19 15 43 29 52 33 15 5 16 2 7 -21 -11 -30 -37 -89 -51 -112 -4 -8
-11 -22 -14 -30 -4 -8 -28 -61 -55 -118 -27 -57 -49 -106 -49 -109 0 -3 -16
-39 -36 -79 -19 -40 -33 -78 -30 -83 4 -5 22 -15 42 -21 30 -10 38 -9 54 5 11
10 23 27 26 39 4 11 36 81 70 154 35 74 64 135 64 137 0 2 25 57 55 122 75
158 80 170 106 227 l22 49 -22 19 c-47 38 -65 30 -261 -114 -24 -18 -49 -35
-55 -37 -5 -2 -28 -18 -50 -35 -22 -17 -52 -38 -67 -45 -15 -8 -36 -21 -45
-30 -10 -9 -47 -36 -83 -59 l-65 -42 -12 82 c-7 46 -17 139 -22 208 -6 69 -15
157 -21 195 -5 39 -13 100 -16 137 -5 63 -7 67 -39 82 -42 20 -40 21 -64 -13z"/>
<path d="M4695 7949 c-133 -26 -173 -43 -231 -93 -73 -62 -91 -133 -55 -212
28 -63 71 -84 167 -84 44 1 110 5 147 9 71 10 124 1 139 -21 15 -24 8 -78 -12
-98 -46 -46 -100 -63 -217 -68 l-112 -4 -10 -31 c-18 -50 -15 -55 42 -62 166
-21 366 57 412 160 24 56 26 68 10 115 -32 98 -80 115 -277 100 -133 -10 -164
-5 -191 32 -18 24 -18 27 -2 61 30 64 101 96 230 106 l80 6 3 41 c3 39 1 42
-29 48 -35 7 -38 7 -94 -5z"/>
<path d="M3928 7911 l-32 -28 75 -104 c41 -57 85 -121 98 -142 l23 -38 -58 2
c-83 3 -121 -8 -184 -52 -59 -41 -114 -113 -130 -169 -14 -48 -12 -138 4 -182
19 -53 82 -144 119 -172 98 -73 216 -87 321 -37 85 41 140 98 167 176 25 68
39 73 59 24 7 -16 14 -29 16 -29 11 0 84 54 84 61 0 5 -15 29 -32 53 -18 24
-49 67 -68 95 -34 51 -55 80 -155 221 -27 39 -66 93 -85 120 -19 27 -59 84
-89 127 -54 77 -77 103 -93 103 -4 0 -22 -13 -40 -29z m188 -405 c133 -62 189
-217 122 -338 -24 -42 -56 -68 -116 -91 -54 -22 -85 -21 -145 0 -62 22 -108
67 -141 137 -31 65 -32 100 -7 158 27 61 58 93 121 128 66 36 99 37 166 6z"/>
<path d="M5350 7540 c-13 -13 -20 -33 -20 -59 0 -33 5 -43 31 -62 37 -26 71
-19 102 22 21 30 17 77 -10 104 -21 22 -79 19 -103 -5z"/>
<path d="M7030 7295 c-25 -8 -58 -22 -75 -32 -40 -23 -135 -122 -135 -141 0
-9 -8 -24 -17 -35 -14 -15 -18 -37 -18 -106 1 -74 5 -93 28 -139 50 -96 120
-160 210 -193 75 -28 93 -25 101 12 3 17 6 35 6 39 0 4 -26 17 -59 29 -72 28
-122 68 -154 126 -47 83 -47 165 -2 220 l25 30 46 -50 c26 -27 103 -110 171
-182 69 -73 131 -133 138 -133 17 0 81 74 108 125 28 54 30 193 3 245 -78 149
-238 228 -376 185z m144 -96 c60 -17 100 -48 131 -102 25 -44 27 -57 23 -122
-4 -58 -9 -76 -28 -95 l-24 -24 -50 56 c-28 31 -91 99 -140 152 -96 104 -97
107 -30 131 48 17 68 18 118 4z"/>
<path d="M3067 7033 c-15 -22 -27 -47 -27 -57 0 -10 18 -48 41 -84 22 -37 45
-76 52 -87 6 -11 25 -42 42 -70 16 -27 35 -57 40 -67 6 -10 55 -92 110 -183
55 -91 116 -193 135 -225 19 -33 38 -60 42 -60 10 0 42 36 57 63 13 24 6 40
-70 149 -41 59 -38 73 60 213 50 72 105 151 123 178 37 53 39 54 181 26 77
-15 89 -11 125 42 22 31 22 34 5 40 -10 4 -33 8 -51 8 -18 1 -42 5 -52 11 -10
5 -52 14 -92 20 -40 5 -120 19 -178 30 -58 11 -146 27 -197 34 -51 8 -97 17
-102 21 -6 3 -43 10 -83 15 -40 6 -87 13 -104 16 -27 5 -33 1 -57 -33z m233
-99 c30 -8 69 -14 88 -14 18 0 41 -4 51 -10 10 -5 49 -14 86 -20 38 -6 72 -13
76 -16 5 -3 -16 -40 -46 -82 -30 -42 -64 -93 -74 -112 -11 -19 -35 -53 -54
-74 l-34 -39 -32 54 c-17 30 -58 97 -91 149 -32 52 -70 116 -85 143 l-25 47
42 -6 c24 -4 68 -13 98 -20z"/>
<path d="M7583 6822 l-32 -27 19 -40 c19 -40 19 -40 -2 -55 -21 -15 -150 -85
-258 -141 -66 -34 -113 -80 -135 -134 -16 -37 -16 -43 1 -98 21 -65 84 -147
114 -147 10 0 27 12 37 26 l19 26 -32 32 c-39 39 -53 96 -33 133 8 14 32 37
54 51 47 30 307 164 310 160 2 -2 16 -28 32 -59 17 -31 37 -66 45 -77 l14 -21
32 21 c18 11 32 24 32 28 0 11 -48 102 -61 115 -21 21 -8 45 40 70 27 13 52
29 56 34 8 15 -33 91 -49 91 -7 0 -19 -7 -26 -15 -7 -8 -19 -15 -27 -15 -7 0
-25 -7 -38 -16 -24 -15 -24 -15 -50 35 -14 28 -26 51 -28 51 -1 0 -16 -13 -34
-28z"/>
<path d="M7786 6241 l-28 -29 35 -38 c54 -60 77 -121 77 -202 0 -94 -24 -125
-114 -148 -21 -5 -25 0 -39 43 -9 27 -19 69 -23 94 -7 46 -21 86 -57 157 -51
100 -184 122 -266 44 -50 -48 -66 -114 -50 -210 5 -37 17 -74 25 -83 8 -8 14
-23 14 -32 0 -8 21 -33 46 -55 l46 -39 -32 -6 c-30 -6 -31 -9 -28 -49 3 -42 4
-43 41 -46 22 -2 60 3 85 12 46 14 84 24 212 51 134 28 210 80 231 158 16 59
5 180 -22 250 -20 52 -99 157 -118 157 -4 0 -20 -13 -35 -29z m-246 -148 c16
-9 35 -30 43 -47 36 -75 47 -109 47 -139 0 -18 6 -44 14 -58 16 -32 12 -41
-31 -63 -43 -21 -52 -21 -107 10 -47 26 -81 73 -107 146 -17 49 8 118 54 147
39 25 51 26 87 4z"/>
<path d="M3029 6033 c-14 -2 -54 -18 -89 -36 -68 -34 -125 -95 -136 -145 -3
-15 -10 -37 -16 -49 -17 -35 -13 -132 7 -191 23 -70 90 -142 162 -177 49 -24
71 -29 144 -29 75 -1 92 2 142 28 94 47 144 110 171 215 29 112 14 221 -37
284 l-22 27 -30 -24 -30 -24 23 -64 c27 -78 28 -118 1 -188 -26 -69 -59 -105
-126 -137 -67 -32 -87 -26 -80 25 3 20 10 84 16 142 7 58 16 125 22 150 6 25
13 77 16 116 l6 71 -33 6 c-33 7 -66 7 -111 0z m39 -102 c11 -7 12 -27 3 -112
-15 -144 -37 -288 -44 -295 -12 -12 -79 31 -117 75 -38 44 -40 49 -40 114 0
50 6 79 21 110 26 50 38 60 104 92 57 28 55 28 73 16z"/>
<path d="M7436 5344 c-3 -9 -6 -35 -6 -58 0 -39 3 -44 43 -69 23 -15 62 -44
86 -65 l44 -38 -11 -44 c-6 -25 -16 -67 -22 -95 -7 -27 -18 -72 -26 -99 -8
-26 -14 -58 -14 -70 0 -33 -36 -128 -51 -136 -8 -4 -45 -11 -84 -15 -107 -11
-131 -24 -138 -76 -7 -52 2 -60 52 -47 20 6 63 14 96 19 33 6 92 16 130 24
151 31 183 37 261 50 45 7 91 18 102 24 11 6 40 11 64 11 24 1 61 7 83 15 22
8 52 15 66 15 34 0 46 15 54 70 7 50 -1 62 -79 114 -22 15 -60 44 -85 65 -25
22 -67 54 -92 73 -51 36 -119 89 -214 166 -33 27 -76 59 -95 72 -19 13 -37 27
-40 30 -16 18 -99 80 -107 80 -6 0 -14 -7 -17 -16z m439 -432 c178 -136 170
-130 162 -138 -4 -4 -42 -13 -84 -20 -43 -7 -123 -20 -177 -29 -54 -8 -107
-20 -117 -25 -10 -6 -28 -10 -40 -10 -19 0 -21 4 -16 38 4 20 14 66 23 102 8
36 21 92 28 125 18 88 24 97 49 83 12 -6 90 -63 172 -126z"/>
<path d="M3240 5269 c-63 -5 -155 -14 -205 -19 -49 -6 -157 -15 -239 -21 -82
-5 -166 -13 -185 -19 -20 -5 -51 -10 -70 -10 l-34 0 7 -42 c4 -22 9 -46 13
-51 6 -11 160 -3 253 13 30 5 123 14 205 20 83 7 211 17 285 23 149 13 149 13
135 83 -5 27 -10 34 -28 32 -12 0 -74 -5 -137 -9z"/>
<path d="M3388 5030 c-40 -7 -122 -33 -178 -57 -8 -4 -33 -12 -55 -19 -105
-32 -326 -111 -335 -120 -16 -16 21 -96 40 -88 28 13 70 16 70 7 0 -6 -7 -25
-16 -43 -25 -50 -14 -179 21 -245 35 -66 89 -121 147 -151 37 -19 63 -24 121
-24 126 0 237 64 283 165 34 72 34 204 0 279 -24 52 -77 115 -126 148 -24 17
-25 18 -6 33 14 11 43 15 99 15 113 0 143 -19 191 -119 34 -72 36 -81 36 -182
0 -101 1 -106 24 -118 60 -32 82 13 72 149 -10 152 -79 293 -169 349 -39 24
-147 34 -219 21z m-111 -201 c38 -14 90 -66 116 -114 30 -57 30 -167 0 -215
-40 -64 -96 -98 -178 -107 -43 -5 -100 16 -147 52 -59 47 -93 174 -69 261 13
48 65 103 113 120 42 16 128 17 165 3z"/>
<path d="M7235 4461 c-67 -28 -98 -51 -138 -102 -54 -69 -81 -149 -72 -216 l6
-53 -34 16 c-20 9 -42 14 -51 11 -20 -8 -40 -51 -33 -70 3 -8 47 -42 99 -75
51 -34 98 -65 103 -70 11 -8 62 -42 86 -57 19 -12 181 -119 221 -146 209 -143
213 -145 246 -99 13 17 22 36 20 42 -2 5 -62 49 -133 97 -126 84 -155 111
-119 111 33 0 125 53 153 89 63 79 76 118 75 222 0 82 -4 101 -24 135 -89 148
-270 222 -405 165z m160 -102 c90 -25 175 -126 175 -208 0 -124 -97 -231 -211
-234 -62 -1 -130 33 -189 93 -38 39 -49 58 -54 94 -13 83 1 128 56 190 65 73
128 91 223 65z"/>
<path d="M3460 4291 c-59 -21 -163 -123 -191 -187 -28 -64 -30 -152 -4 -224
27 -74 121 -174 193 -206 65 -29 185 -34 218 -9 10 8 26 15 34 15 33 0 154
113 165 153 4 12 13 37 22 56 10 23 14 54 11 96 -8 127 -106 262 -224 306 -60
23 -161 23 -224 0z m196 -98 c84 -26 154 -119 154 -206 0 -35 -28 -104 -58
-145 -30 -39 -136 -92 -185 -92 -105 0 -227 119 -227 222 0 79 88 190 176 222
52 19 77 19 140 -1z"/>
<path d="M6850 3973 c-122 -46 -235 -126 -280 -198 -30 -48 -37 -149 -13 -194
29 -55 65 -76 131 -75 57 1 88 12 222 84 71 38 121 40 149 4 12 -15 21 -36 21
-48 0 -53 -109 -157 -187 -178 -49 -13 -63 -25 -63 -53 0 -35 31 -56 66 -46
61 18 129 61 187 117 92 91 118 174 78 252 -25 49 -47 67 -99 83 -44 13 -93 4
-152 -26 -84 -44 -124 -66 -136 -76 -7 -6 -34 -11 -59 -12 -60 -2 -79 19 -72
81 4 34 14 53 42 82 39 40 146 99 200 110 28 5 30 9 30 50 0 41 -2 45 -25 47
-14 1 -32 -1 -40 -4z"/>
<path d="M4000 3791 c-72 -34 -116 -70 -152 -123 -21 -30 -38 -61 -38 -69 0
-8 -6 -21 -12 -27 -21 -21 -15 -159 10 -212 54 -117 194 -210 317 -210 50 0
142 27 173 52 130 102 180 248 131 380 -30 83 -121 174 -204 206 -70 27 -173
29 -225 3z m210 -101 c60 -30 104 -82 124 -145 16 -53 16 -59 0 -108 -30 -94
-79 -146 -166 -176 -58 -20 -58 -20 -117 0 -70 24 -124 74 -154 143 -20 46
-20 49 -3 104 30 96 66 143 140 184 43 24 127 23 176 -2z"/>
<path d="M4618 3478 c-55 -18 -58 -21 -58 -53 0 -19 -4 -36 -9 -40 -5 -3 -15
-31 -21 -63 -6 -31 -17 -79 -25 -106 -8 -26 -15 -52 -15 -57 0 -9 64 -39 85
-39 15 0 31 38 45 105 24 120 36 150 65 164 50 24 105 25 182 1 172 -52 263
-163 263 -321 0 -72 -4 -87 -36 -152 -25 -50 -49 -82 -78 -105 -58 -43 -156
-82 -209 -82 -50 0 -157 34 -207 65 -40 25 -90 73 -90 86 0 5 -6 9 -14 9 -23
0 -76 -34 -76 -48 0 -21 95 -116 142 -141 119 -64 281 -83 388 -46 92 32 180
95 214 153 44 75 58 110 72 180 14 72 14 85 -1 157 -9 44 -28 101 -42 127 -33
60 -115 138 -179 171 -115 58 -284 73 -396 35z"/>
<path d="M5821 3444 c-27 -35 -27 -78 1 -103 33 -32 57 -35 87 -14 33 25 42
95 15 124 -26 29 -78 25 -103 -7z"/>
</g>
</svg>
